<?xml version="1.0" encoding="utf-8"?>
<!-- Generator: Adobe Illustrator 16.0.4, SVG Export Plug-In . SVG Version: 6.00 Build 0)  -->
<!DOCTYPE svg PUBLIC "-//W3C//DTD SVG 1.1//EN" "http://www.w3.org/Graphics/SVG/1.1/DTD/svg11.dtd">
<svg version="1.1" id="Capa_1" xmlns="http://www.w3.org/2000/svg" xmlns:xlink="http://www.w3.org/1999/xlink" x="0px" y="0px"
	 width="64px" height="64px" viewBox="0 0 64 64" enable-background="new 0 0 64 64" xml:space="preserve">
<g>
	<circle fill="#0E0F0F" cx="32.561" cy="8.802" r="4.213"/>
	<circle fill="#0E0F0F" cx="7.433" cy="11.939" r="4.214"/>
	<circle fill="#0E0F0F" cx="55.814" cy="11.939" r="4.214"/>
	<path fill="#0E0F0F" d="M48.859,30.478h-8.441c0.016-0.163,0.025-0.329,0.025-0.501c0-3.638,0-7.275,0-10.914
		c0-3.664-3.355-5.178-6.102-4.528c-0.894-0.209-1.845-0.19-2.725,0.056c-2.768-0.773-6.238,0.686-6.238,4.403
		c0,3.64,0,7.276,0,10.914c0,0.197,0.01,0.386,0.029,0.571h-9.15v4.451h32.602V30.478z"/>
	<path fill="#0E0F0F" d="M51.018,22.937c0,4.984,0,9.972,0,14.958c0,0.176,0.008,0.347,0.022,0.51
		c-2.521,0.796-5.032,1.623-7.541,2.463c-1.106,0.367-1.701,1.184-1.888,2.082c-0.111,0.301-0.187,0.633-0.187,1.016
		c0,4.141,0,8.277,0,12.416c0,3.643,5.646,3.643,5.646,0c0-3.587,0-7.173,0-10.759c3.679-1.222,7.365-2.417,11.1-3.453
		c1.131-0.312,1.734-1.094,1.926-1.976c0.325-0.623,0.521-1.36,0.521-2.229c0-4.986,0-9.973,0-14.959
		C60.615,16.809,51.018,16.755,51.018,22.937z"/>
	<path fill="#0E0F0F" d="M20.536,40.986c-2.766-0.922-5.535-1.836-8.32-2.701c0.007-0.105,0.016-0.211,0.016-0.32
		c0-4.986,0-9.973,0-14.959c0-6.197-9.597-6.251-9.597-0.069c0,4.984,0,9.972,0,14.958c0,2.73,1.864,4.27,3.948,4.604
		c3.489,0.985,6.939,2.104,10.381,3.243c0,3.588,0,7.175,0,10.761c0,3.642,5.644,3.642,5.644,0c0-4.139,0-8.276,0-12.417
		c0-0.383-0.073-0.717-0.186-1.02C22.236,42.169,21.642,41.354,20.536,40.986z"/>
	<path fill="#0E0F0F" d="M26.229,39.003c0,4.14,0,8.279,0,12.419c0,3.641,5.644,3.641,5.644,0c0-4.14,0-8.279,0-12.419
		C31.874,35.365,26.229,35.365,26.229,39.003z"/>
	<path fill="#0E0F0F" d="M32.963,39.003c0,4.14,0,8.279,0,12.419c0,3.641,5.645,3.641,5.645,0c0-4.14,0-8.279,0-12.419
		C38.605,35.365,32.963,35.365,32.963,39.003z"/>
</g>
</svg>
