<?xml version="1.0" encoding="iso-8859-1"?>
<!-- Generator: Adobe Illustrator 17.0.0, SVG Export Plug-In . SVG Version: 6.00 Build 0)  -->
<!DOCTYPE svg PUBLIC "-//W3C//DTD SVG 1.1//EN" "http://www.w3.org/Graphics/SVG/1.1/DTD/svg11.dtd">
<svg version="1.1" id="Capa_1" xmlns="http://www.w3.org/2000/svg" xmlns:xlink="http://www.w3.org/1999/xlink" x="0px" y="0px"
	 width="64px" height="64px" viewBox="0 0 64 64" style="enable-background:new 0 0 64 64;" xml:space="preserve">
<g>
	<path d="M59.612,2.917h-3.618l-1.432,1.431l-1.431-1.431h-3.43l-1.432,1.431L46.84,2.917h-3.43l-1.431,1.431l-1.432-1.431h-3.43
		l-1.431,1.431l-1.432-1.431h-3.43l-1.431,1.431l-1.431-1.431h-3.988V28.12l-5.762,5.689l5.762,4.034v23.242h3.842l1.577-1.577
		l1.577,1.577h3.138l1.577-1.577l1.577,1.577h3.138l1.577-1.577l1.576,1.577h3.139l1.576-1.577l1.577,1.577h3.138l1.577-1.577
		l1.577,1.577h3.473V2.917z M58.112,59.583h-1.352l-2.198-2.198l-2.198,2.198h-1.896l-2.198-2.199l-2.197,2.199h-1.896l-2.197-2.199
		l-2.198,2.199h-1.896l-2.198-2.198l-2.198,2.198h-1.896l-2.198-2.198l-2.198,2.198h-1.721V38.892l0.782,0.547l3.675-3.629
		l-4.457-6.544V4.417h1.867l2.052,2.053l2.052-2.053h2.188l2.053,2.052l2.052-2.052h2.188l2.053,2.052l2.052-2.052h2.188
		l2.052,2.052l2.053-2.052h2.188l2.052,2.052l2.053-2.052h1.497V59.583z"/>
	<path d="M39.074,30.567c-0.24-0.413-0.428-1.226-0.562-2.437h-3.894c-0.029,2.663,0.779,4.548,2.423,5.653
		c0.933,0.615,2.346,1.029,4.24,1.24v2.87h1.399v-2.899c1.49-0.115,2.779-0.51,3.865-1.183c1.779-1.096,2.668-2.855,2.668-5.278
		c0-1.836-0.647-3.259-1.937-4.269c-0.786-0.606-2.317-1.303-4.596-2.091v-5.495c0.949,0.067,1.606,0.442,1.966,1.125
		c0.209,0.394,0.351,1.019,0.428,1.875h3.793c-0.058-2.307-0.894-3.976-2.512-5.004c-0.889-0.644-2.115-1.029-3.675-1.154v-1.947
		H41.28v1.918c-0.981,0.077-1.726,0.197-2.235,0.361c-0.836,0.26-1.596,0.731-2.279,1.413c-0.529,0.529-0.94,1.159-1.233,1.889
		c-0.293,0.731-0.44,1.543-0.44,2.437c0,1.356,0.377,2.514,1.132,3.476c0.755,0.961,2.05,1.711,3.887,2.25l1.168,0.346v6.158
		C40.184,31.629,39.449,31.211,39.074,30.567z M42.679,26.139c0.798,0.298,1.365,0.586,1.697,0.865
		c0.56,0.481,0.841,1.135,0.841,1.961c0,1.086-0.3,1.851-0.899,2.293c-0.341,0.25-0.889,0.423-1.639,0.519V26.139z M39.723,21.049
		c-0.606-0.471-0.909-1.11-0.909-1.918c0-0.74,0.202-1.324,0.606-1.752s1.024-0.651,1.86-0.671v5.062
		C40.578,21.548,40.059,21.308,39.723,21.049z"/>
	<rect x="31.25" y="47.774" width="21.167" height="2"/>
	<polygon points="1.885,14.752 17.373,33.048 23.657,26.844 5.56,11.123 	"/>
	<path d="M35.954,45.92c0,0-2.11-2.789-1.773-5.672l-4.368-3.409l-2.522,2.536l2.965,3.983
		C30.256,43.358,33.942,43.553,35.954,45.92z M32.844,41.653c-0.004,0.016-0.005,0.031-0.01,0.047
		c-0.022,0.065-0.055,0.121-0.092,0.177c-0.021,0.033-0.04,0.067-0.066,0.096c-0.03,0.033-0.065,0.058-0.101,0.086
		c-0.047,0.038-0.093,0.073-0.149,0.099c-0.028,0.013-0.058,0.019-0.087,0.028c-0.05,0.017-0.096,0.043-0.151,0.049
		c-0.024,0.003-0.045-0.006-0.069-0.006c-0.007,0-0.014,0.004-0.021,0.004c-0.017,0-0.032-0.009-0.049-0.01
		c-0.081-0.006-0.158-0.019-0.232-0.048c-0.024-0.01-0.044-0.023-0.067-0.035c-0.063-0.033-0.121-0.069-0.173-0.118
		c-0.029-0.027-0.05-0.057-0.075-0.088c-0.033-0.043-0.065-0.084-0.089-0.134c-0.028-0.056-0.043-0.115-0.057-0.178
		c-0.005-0.023-0.019-0.042-0.021-0.066c-0.001-0.01,0.003-0.02,0.003-0.03c-0.003-0.027-0.016-0.051-0.015-0.079
		c0-0.065,0.023-0.122,0.038-0.182c0.002-0.006,0.002-0.013,0.004-0.019c0.093-0.331,0.384-0.577,0.744-0.575
		c0.431,0.003,0.779,0.355,0.776,0.786C32.885,41.526,32.862,41.588,32.844,41.653z"/>
	<path d="M1.191,14.12l3.39-3.347C1.088,10.741,1.191,14.12,1.191,14.12z"/>
	<path d="M52.948,42.693c-1.418,0.829-2.827,1.64-4.414,2.054c-0.083-0.521-0.166-1.042-0.271-1.56
		c-0.03-0.309-0.299-0.588-0.633-0.482c-1.868,0.59-3.42,1.799-5.249,2.454c-0.149-0.681-0.297-1.362-0.448-2.043
		c-0.074-0.334-0.46-0.435-0.734-0.299c-1.63,0.805-3.278,1.57-4.938,2.312c-0.588,0.263-0.079,1.125,0.505,0.863
		c1.455-0.651,2.899-1.325,4.332-2.022c0.144,0.658,0.287,1.316,0.433,1.973c0.058,0.264,0.363,0.422,0.615,0.349
		c1.876-0.542,3.419-1.736,5.221-2.432c0.091,0.547,0.202,1.085,0.289,1.645c0.044,0.284,0.373,0.396,0.615,0.349
		c1.903-0.368,3.526-1.332,5.182-2.3C54.009,43.232,53.506,42.367,52.948,42.693z"/>
</g>
</svg>
